<svg width="24" height="25" viewBox="0 0 24 25" fill="none" xmlns="http://www.w3.org/2000/svg">
<g clip-path="url(#clip0)">
<path d="M12 2.98118C15.204 2.98118 15.584 2.99318 16.85 3.05118C20.102 3.19918 21.621 4.74218 21.769 7.97018C21.827 9.23518 21.838 9.61518 21.838 12.8192C21.838 16.0242 21.826 16.4032 21.769 17.6682C21.62 20.8932 20.105 22.4392 16.85 22.5872C15.584 22.6452 15.206 22.6572 12 22.6572C8.796 22.6572 8.416 22.6452 7.151 22.5872C3.891 22.4382 2.38 20.8882 2.232 17.6672C2.174 16.4022 2.162 16.0232 2.162 12.8182C2.162 9.61418 2.175 9.23518 2.232 7.96918C2.381 4.74218 3.896 3.19818 7.151 3.05018C8.417 2.99318 8.796 2.98118 12 2.98118ZM12 0.818176C8.741 0.818176 8.333 0.832176 7.053 0.890176C2.695 1.09018 0.273 3.50818 0.073 7.87018C0.014 9.15118 0 9.55918 0 12.8182C0 16.0772 0.014 16.4862 0.072 17.7662C0.272 22.1242 2.69 24.5462 7.052 24.7462C8.333 24.8042 8.741 24.8182 12 24.8182C15.259 24.8182 15.668 24.8042 16.948 24.7462C21.302 24.5462 23.73 22.1282 23.927 17.7662C23.986 16.4862 24 16.0772 24 12.8182C24 9.55918 23.986 9.15118 23.928 7.87118C23.732 3.51718 21.311 1.09118 16.949 0.891176C15.668 0.832176 15.259 0.818176 12 0.818176V0.818176ZM12 6.65618C8.597 6.65618 5.838 9.41518 5.838 12.8182C5.838 16.2212 8.597 18.9812 12 18.9812C15.403 18.9812 18.162 16.2222 18.162 12.8182C18.162 9.41518 15.403 6.65618 12 6.65618ZM12 16.8182C9.791 16.8182 8 15.0282 8 12.8182C8 10.6092 9.791 8.81818 12 8.81818C14.209 8.81818 16 10.6092 16 12.8182C16 15.0282 14.209 16.8182 12 16.8182ZM18.406 4.97318C17.61 4.97318 16.965 5.61818 16.965 6.41318C16.965 7.20818 17.61 7.85318 18.406 7.85318C19.201 7.85318 19.845 7.20818 19.845 6.41318C19.845 5.61818 19.201 4.97318 18.406 4.97318Z" fill="white"/>
</g>
<defs>
<clipPath id="clip0">
<rect width="24" height="24" fill="white" transform="translate(0 0.818176)"/>
</clipPath>
</defs>
</svg>
